<?xml version="1.0" encoding="UTF-8"?>
<svg id="Layer_2" data-name="Layer 2" xmlns="http://www.w3.org/2000/svg" width="229" height="192" viewBox="0 0 229 192">
  <g id="Layer_1-2" data-name="Layer 1">
    <g>
      <rect width="229" height="192" fill="none"/>
      <g id="Group_11393" data-name="Group 11393">
        <path id="Path_3337" data-name="Path 3337" d="m168.779,52.43c0-16.379,11.811-27.744,26.963-27.744,14.93,0,21.393,8.8,21.393,15.041,0,16.713-28.077,12.033-28.077,28.077,0,5.794,3.789,9.026,9.025,9.026,7.246,0,11.027-7.452,12.161-12.169.052-.233.283-.38.515-.328.003,0,.006.001.009.002,2.628.517,4.539,2.798,4.586,5.476,0,4.122-6.351,10.473-19.053,10.473-15.71,0-27.521-11.475-27.521-27.854m34.094-15.488c0-5.9-2.674-9.025-6.685-9.025-6.8,0-11.588,9.8-11.588,24.512-.022,3.502.379,6.994,1.194,10.4.06.237.301.381.538.321.158-.04.281-.163.321-.321,2.907-10.179,16.22-14.383,16.22-25.895" fill="#dc4943"/>
        <path id="Path_3338" data-name="Path 3338" d="m168.779,52.43c0-16.379,11.811-27.744,26.963-27.744,14.93,0,21.393,8.8,21.393,15.041,0,16.713-28.077,12.033-28.077,28.077,0,5.794,3.789,9.026,9.025,9.026,7.246,0,11.027-7.452,12.161-12.169.052-.233.283-.38.515-.328.003,0,.006.001.009.002,2.628.517,4.539,2.798,4.586,5.476,0,4.122-6.351,10.473-19.053,10.473-15.711,0-27.522-11.475-27.522-27.854Zm34.094-15.488c0-5.9-2.674-9.025-6.685-9.025-6.8,0-11.588,9.8-11.588,24.512-.022,3.502.379,6.994,1.194,10.4.06.237.301.381.538.321.158-.04.281-.163.321-.321,2.908-10.171,16.22-14.376,16.22-25.887Z" fill="none" stroke="#be9251" stroke-miterlimit="10" stroke-width="1.404"/>
        <path id="Path_3339" data-name="Path 3339" d="m2.575,157.783c-.241.002-.439-.192-.441-.433-.001-.138.063-.268.173-.352,3.672-2.79,6.2-9.388,6.2-16.708v-36.822c0-7.321-2.8-13.918-6.443-16.708-.192-.146-.23-.42-.084-.612.084-.11.215-.175.354-.173h28.39c.241-.003.44.19.443.431.002.139-.062.27-.173.354-3.646,2.79-6.446,9.39-6.446,16.708v14.5c0,.244.198.442.442.442h22.258c.244,0,.442-.198.442-.442h0v-14.5c0-7.321-2.707-13.92-6.335-16.709-.192-.147-.228-.421-.081-.613.084-.109.214-.173.351-.171h28.397c.241-.003.44.19.443.431.002.139-.062.27-.173.354-3.644,2.79-6.444,9.39-6.444,16.708v36.822c0,7.319,2.526,13.917,6.2,16.708.192.146.23.42.084.612-.083.11-.214.174-.352.173h-27.937c-.242.001-.439-.194-.44-.436,0-.135.061-.264.168-.347,3.593-2.789,6.121-9.388,6.121-16.71v-16.875c0-.244-.198-.442-.442-.442h-22.258c-.244,0-.442.198-.442.442h0v16.875c0,7.319,2.527,13.917,6.2,16.708.192.146.23.42.084.612-.083.11-.214.174-.352.173H2.575Z" fill="#dc4943"/>
        <path id="Path_3340" data-name="Path 3340" d="m2.575,157.783c-.241.002-.439-.192-.441-.433-.001-.138.063-.268.173-.352,3.672-2.79,6.2-9.388,6.2-16.708v-36.822c0-7.321-2.8-13.918-6.443-16.708-.192-.146-.23-.42-.084-.612.084-.11.215-.175.354-.173h28.39c.241-.003.44.19.443.431.002.139-.062.27-.173.354-3.646,2.79-6.446,9.39-6.446,16.708v14.5c0,.244.198.442.442.442h22.258c.244,0,.442-.198.442-.442h0v-14.5c0-7.321-2.707-13.92-6.335-16.709-.192-.147-.228-.421-.081-.613.084-.109.214-.173.351-.171h28.397c.241-.003.44.19.443.431.002.139-.062.27-.173.354-3.644,2.79-6.444,9.39-6.444,16.708v36.822c0,7.319,2.526,13.917,6.2,16.708.192.146.23.42.084.612-.083.11-.214.174-.352.173h-27.937c-.242.001-.439-.194-.44-.436,0-.135.061-.264.168-.347,3.593-2.789,6.121-9.388,6.121-16.71v-16.875c0-.244-.198-.442-.442-.442h-22.258c-.244,0-.442.198-.442.442h0v16.875c0,7.319,2.527,13.917,6.2,16.708.192.146.23.42.084.612-.083.11-.214.174-.352.173H2.575Z" fill="none" stroke="#be9251" stroke-miterlimit="10" stroke-width="1.404"/>
        <path id="Path_3341" data-name="Path 3341" d="m67.142,128.058c0-16.379,11.81-27.743,28.078-27.743,16.378,0,28.188,11.364,28.188,27.743s-11.81,27.858-28.184,27.858c-16.268,0-28.078-11.476-28.078-27.855m40,0c0-14.707-4.234-24.512-11.922-24.512-7.577,0-11.811,9.805-11.811,24.512,0,14.819,4.234,24.4,11.811,24.4,7.687,0,11.922-9.582,11.922-24.4" fill="#dc4943"/>
        <path id="Path_3342" data-name="Path 3342" d="m67.142,128.058c0-16.379,11.81-27.743,28.078-27.743,16.378,0,28.188,11.364,28.188,27.743s-11.81,27.858-28.184,27.858c-16.272,0-28.082-11.479-28.082-27.858Zm40,0c0-14.707-4.234-24.512-11.922-24.512-7.577,0-11.811,9.805-11.811,24.512,0,14.819,4.234,24.4,11.811,24.4,7.687.001,11.922-9.581,11.922-24.4Z" fill="none" stroke="#be9251" stroke-miterlimit="10" stroke-width="1.404"/>
        <path id="Path_3343" data-name="Path 3343" d="m216.509,100.314c-6.5,0-12.275,5.11-15.086,12.193-.09.225-.345.335-.57.246-.166-.066-.276-.227-.277-.406v-11.932c0-.242-.198-.438-.44-.438-.079,0-.157.022-.225.063-5.594,3.312-11.703,5.663-18.074,6.956-.239.05-.392.285-.342.523.023.109.086.205.177.27,3.207,2.455,3.863,8.759,3.863,15.812v15.153c0,7.515-.747,12.369-4.527,14.468-.141.077-.311.077-.452,0-3.677-2.1-4.53-6.954-4.53-14.466v-38.347c-.002-.243-.2-.439-.443-.437-.077,0-.153.021-.22.061-5.619,3.288-11.735,5.642-18.109,6.968-.238.052-.389.287-.337.525.023.104.082.196.167.259,3.059,2.461,3.9,9.151,3.9,13.032,0,13.147-4.567,27.743-12.924,27.743-4.791,0-7.019-5.46-7.019-12.59v-35.555c0-.242-.198-.438-.44-.438-.079,0-.157.022-.225.063-5.594,3.312-11.703,5.663-18.074,6.956-.239.05-.392.285-.342.523.023.109.086.205.177.27,3.207,2.455,3.863,8.759,3.863,15.812v10.25c0,11.922,5.349,22.061,16.936,22.061,7.971,0,13.88-5.343,17.211-12.5.099-.221.358-.32.578-.222.158.071.26.228.26.402v11.1c0,.244.198.442.442.442h42.611c.241.001.438-.193.439-.435,0-.13-.056-.253-.155-.336-3.073-2.633-3.969-8.717-3.969-15.607,0-24.623,5.794-29.86,10.585-29.86,3.9,0,5.905,3.231,5.905,6.24-.007.982-.199,1.955-.566,2.866-.087.226.025.479.251.566.024.009.05.017.075.022.74.145,1.491.219,2.245.223,5.682,0,8.467-4.122,8.467-8.468,0-4.9-3.565-10.027-10.807-10.027" fill="#dc4943"/>
        <path id="Path_3344" data-name="Path 3344" d="m216.509,100.314c-6.5,0-12.275,5.11-15.086,12.193-.09.225-.345.335-.57.246-.166-.066-.276-.227-.277-.406v-11.932c0-.242-.198-.438-.44-.438-.079,0-.157.022-.225.063-5.594,3.312-11.703,5.663-18.074,6.956-.239.05-.392.285-.342.523.023.109.086.205.177.27,3.207,2.455,3.863,8.759,3.863,15.812v15.153c0,7.515-.747,12.369-4.527,14.468-.141.077-.311.077-.452,0-3.677-2.1-4.53-6.954-4.53-14.466v-38.347c-.002-.243-.2-.439-.443-.437-.077,0-.153.021-.22.061-5.619,3.288-11.735,5.642-18.109,6.968-.238.052-.389.287-.337.525.023.104.082.196.167.259,3.059,2.461,3.9,9.151,3.9,13.032,0,13.147-4.567,27.743-12.924,27.743-4.791,0-7.019-5.46-7.019-12.59v-35.555c0-.242-.198-.438-.44-.438-.079,0-.157.022-.225.063-5.594,3.312-11.703,5.663-18.074,6.956-.239.05-.392.285-.342.523.023.109.086.205.177.27,3.207,2.455,3.863,8.759,3.863,15.812v10.25c0,11.922,5.349,22.061,16.936,22.061,7.971,0,13.88-5.343,17.211-12.5.099-.221.358-.32.578-.222.158.071.26.228.26.402v11.1c0,.244.198.442.442.442h42.611c.241.001.438-.193.439-.435,0-.13-.056-.253-.155-.336-3.073-2.633-3.969-8.717-3.969-15.607,0-24.623,5.794-29.86,10.585-29.86,3.9,0,5.905,3.231,5.905,6.24-.007.982-.199,1.955-.566,2.866-.087.226.025.479.251.566.024.009.05.017.075.022.74.145,1.491.219,2.245.223,5.682,0,8.467-4.122,8.467-8.468,0-4.904-3.564-10.031-10.806-10.031Z" fill="none" stroke="#be9251" stroke-miterlimit="10" stroke-width="1.404"/>
        <path id="Path_3345" data-name="Path 3345" d="m2.351,79.504h63.119c.234,0,.423-.19.422-.424,0-.117-.049-.229-.135-.309-3.322-3.134-5.183-7.513-5.133-12.08-.002-.897.065-1.794.2-2.681.039-.229-.115-.447-.345-.486-.166-.028-.332.045-.423.186-5.348,7.683-14.07,12.318-23.43,12.452-6.351,0-12.144-5.126-12.144-14.039V19.004c0-7.338,2.72-13.95,6.362-16.728.189-.137.232-.401.096-.591-.081-.112-.211-.177-.349-.175H2.108c-.234,0-.424.19-.424.424,0,.135.064.261.172.341,3.658,2.778,6.47,9.39,6.47,16.727v43.008c0,7.337-2.538,13.948-6.225,16.727-.189.138-.23.404-.091.593.08.109.206.173.341.173" fill="#dc4943"/>
        <path id="Path_3346" data-name="Path 3346" d="m2.351,79.504h63.119c.234,0,.423-.19.422-.424,0-.117-.049-.229-.135-.309-3.322-3.134-5.183-7.513-5.133-12.08-.002-.897.065-1.794.2-2.681.039-.229-.115-.447-.345-.486-.166-.028-.332.045-.423.186-5.348,7.683-14.07,12.318-23.43,12.452-6.351,0-12.144-5.126-12.144-14.039V19.004c0-7.338,2.72-13.95,6.362-16.728.189-.137.232-.401.096-.591-.081-.112-.211-.177-.349-.175H2.108c-.234,0-.424.19-.424.424,0,.135.064.261.172.341,3.658,2.778,6.47,9.39,6.47,16.727v43.008c0,7.337-2.538,13.948-6.225,16.727-.189.138-.231.403-.094.592.08.11.208.175.344.175Z" fill="none" stroke="#be9251" stroke-miterlimit="10" stroke-width="1.404"/>
        <path id="Path_3347" data-name="Path 3347" d="m182.957,19.398h-23.008c-.243.002-.439.2-.437.443,0,.073.019.144.054.208.324.625.493,1.32.493,2.024,0,5.774-16.714,18.621-22,28.941-.109.218-.374.305-.592.196-.15-.075-.244-.229-.243-.396V2.042c0-.242-.197-.439-.44-.438-.079,0-.156.022-.224.062-5.594,3.312-11.703,5.663-18.074,6.957-.239.048-.394.28-.346.519.021.103.078.196.161.261,3.221,2.444,3.88,8.749,3.88,15.713v38.01c0,7.41-.731,12.185-4.376,14.369-.146.086-.328.086-.474,0-3.645-2.184-4.376-6.959-4.376-14.369v-15.042c0-15.6-9.805-23.4-24.512-23.4-13.927,0-21.616,7.019-21.616,13.927,0,5.46,3.9,7.354,7.911,7.354,3.052,0,6.2-1.094,7.67-2.623.134-.16.134-.392,0-.552-1.528-1.826-2.353-4.138-2.324-6.519,0-4.456,3.009-8.356,8.134-8.356,4.791,0,7.911,3.565,7.911,8.8,0,16.156-31.977,12.033-31.977,29.972,0,7.019,5.125,13.593,16.379,13.593,7.959,0,13.7-3.642,16.42-10.45.087-.226.34-.34.567-.253.169.065.281.226.282.407v9.073c0,.244.198.442.442.442h42.844c.242,0,.439-.196.44-.438,0-.109-.04-.215-.114-.296-2.938-3.268-4.184-8.184-4.184-12.526.094-4.412,1.225-8.74,3.3-12.635.112-.219.381-.306.6-.193.078.04.142.101.185.177l5.387,9.531c3.12,5.571,5.95,10.586,5.95,13.705.04.699-.135,1.393-.5,1.99-.136.2-.084.473.116.608.073.05.159.076.248.076h23.544c.242-.003.436-.202.433-.445-.002-.142-.072-.274-.189-.355-5.1-3.455-8.42-8.459-12.442-15.575l-12.864-22.309c-.105-.178-.072-.404.079-.545,7.672-7.13,24.55-16.88,32.057-20.026.224-.094.33-.351.237-.576-.069-.166-.232-.273-.412-.27m-96.514,54.759c-3.565,0-6.462-2.785-6.462-8.022,0-10.333,13.172-14.679,16.986-21.747.118-.212.386-.288.599-.17.143.08.23.233.225.397-.261,18.973-3.649,29.543-11.348,29.543" fill="#dc4943"/>
        <path id="Path_3348" data-name="Path 3348" d="m182.957,19.398h-23.008c-.243.002-.439.2-.437.443,0,.073.019.144.054.208.324.625.493,1.32.493,2.024,0,5.774-16.714,18.621-22,28.941-.109.218-.374.305-.592.196-.15-.075-.244-.229-.243-.396V2.042c0-.242-.197-.439-.44-.438-.079,0-.156.022-.224.062-5.594,3.312-11.703,5.663-18.074,6.957-.239.048-.394.28-.346.519.021.103.078.196.161.261,3.221,2.444,3.88,8.749,3.88,15.713v38.01c0,7.41-.731,12.185-4.376,14.369-.146.086-.328.086-.474,0-3.645-2.184-4.376-6.959-4.376-14.369v-15.042c0-15.6-9.805-23.4-24.512-23.4-13.927,0-21.616,7.019-21.616,13.927,0,5.46,3.9,7.354,7.911,7.354,3.052,0,6.2-1.094,7.67-2.623.134-.16.134-.392,0-.552-1.528-1.826-2.353-4.138-2.324-6.519,0-4.456,3.009-8.356,8.134-8.356,4.791,0,7.911,3.565,7.911,8.8,0,16.156-31.977,12.033-31.977,29.972,0,7.019,5.125,13.593,16.379,13.593,7.959,0,13.7-3.642,16.42-10.45.087-.226.34-.34.567-.253.169.065.281.226.282.407v9.073c0,.244.198.442.442.442h42.844c.242,0,.439-.196.44-.438,0-.109-.04-.215-.114-.296-2.938-3.268-4.184-8.184-4.184-12.526.094-4.412,1.225-8.74,3.3-12.635.112-.219.381-.306.6-.193.078.04.142.101.185.177l5.387,9.531c3.12,5.571,5.95,10.586,5.95,13.705.04.699-.135,1.393-.5,1.99-.136.2-.084.473.116.608.073.05.159.076.248.076h23.544c.242-.003.436-.202.433-.445-.002-.142-.072-.274-.189-.355-5.1-3.455-8.42-8.459-12.442-15.575l-12.864-22.309c-.105-.178-.072-.404.079-.545,7.672-7.13,24.55-16.88,32.057-20.026.224-.095.328-.353.233-.577-.069-.164-.23-.269-.408-.268Zm-96.514,54.758c-3.565,0-6.462-2.785-6.462-8.022,0-10.333,13.172-14.679,16.986-21.747.118-.212.386-.288.599-.17.143.08.23.233.225.397-.261,18.973-3.65,29.542-11.348,29.542Z" fill="none" stroke="#be9251" stroke-miterlimit="10" stroke-width="1.404"/>
        <path id="Path_3349" data-name="Path 3349" d="m58.815,174.227c-.267.155-.543.334-.829.537-.283.198-.546.425-.783.677-.228.242-.424.513-.583.806-.157.29-.237.616-.234.946,0,.25.106.487.292.654.173.176.398.291.642.327v.07c-.249.236-.514.455-.794.654-.282.192-.617.291-.958.281-.269.005-.528-.104-.712-.3-.191-.192-.297-.453-.293-.724-.001-.493.141-.976.409-1.39.28-.437.622-.831,1.016-1.168.407-.352.85-.661,1.32-.923.475-.267.915-.492,1.32-.677l.187.23Zm3.9,0c-.267.155-.543.334-.829.537-.283.198-.545.425-.782.677-.229.242-.426.513-.585.806-.156.291-.236.616-.233.946,0,.249.106.487.291.654.173.176.398.291.642.327v.07c-.249.236-.514.455-.794.654-.282.192-.617.291-.958.281-.269.005-.528-.104-.712-.3-.191-.192-.297-.453-.292-.724-.001-.493.141-.976.409-1.39.28-.437.622-.83,1.016-1.168.407-.352.85-.661,1.32-.923.475-.267.915-.492,1.32-.677l.187.23Z" fill="#be9251"/>
        <path id="Path_3350" data-name="Path 3350" d="m58.815,174.227c-.267.155-.543.334-.829.537-.283.198-.546.425-.783.677-.228.242-.424.513-.583.806-.157.29-.237.616-.234.946,0,.25.106.487.292.654.173.176.398.291.642.327v.07c-.249.236-.514.455-.794.654-.282.192-.617.291-.958.281-.269.005-.528-.104-.712-.3-.191-.192-.297-.453-.293-.724-.001-.493.141-.976.409-1.39.28-.437.622-.831,1.016-1.168.407-.352.85-.661,1.32-.923.475-.267.915-.492,1.32-.677l.187.23Zm3.9,0c-.267.155-.543.334-.829.537-.283.198-.545.425-.782.677-.229.242-.426.513-.585.806-.156.291-.236.616-.233.946,0,.249.106.487.291.654.173.176.398.291.642.327v.07c-.249.236-.514.455-.794.654-.282.192-.617.291-.958.281-.269.005-.528-.104-.712-.3-.191-.192-.297-.453-.292-.724-.001-.493.141-.976.409-1.39.28-.437.622-.83,1.016-1.168.407-.352.85-.661,1.32-.923.475-.267.915-.492,1.32-.677l.187.23Z" fill="none" stroke="#be9251" stroke-miterlimit="10" stroke-width=".484"/>
        <path id="Path_3351" data-name="Path 3351" d="m62.695,183.944c-.14.187-.358.53-.654,1.028-.296.498-.596,1.031-.9,1.6s-.573,1.106-.806,1.612c-.182.337-.301.706-.35,1.086-.006.172.062.337.187.455.131.121.286.212.455.268.182.064.37.111.56.141.17.025.337.064.5.116v.328c-.482-.047-.957-.075-1.425-.082s-.943-.011-1.425-.011c-.451,0-.891.008-1.32.024s-.869.039-1.32.07v-.328c.367-.075.723-.193,1.063-.35.305-.152.584-.349.829-.585.303-.292.577-.613.818-.958.281-.389.614-.871,1-1.448.249-.39.572-.89.969-1.5.397-.61.845-1.272,1.344-1.986.497-.716,1.027-1.471,1.588-2.266.561-.795,1.138-1.573,1.729-2.336.591-.763,1.183-1.492,1.775-2.185.592-.693,1.153-1.297,1.682-1.81l.537.14v13.992c-.012.195.042.388.152.549.104.135.235.247.385.327.166.09.342.161.525.21.188.053.371.12.549.2v.328c-.452-.047-.908-.075-1.367-.082-.459-.007-.915-.011-1.366-.011-.561,0-1.121.004-1.682.011s-1.121.035-1.682.082v-.328c.498-.124.907-.241,1.226-.35.271-.085.526-.211.759-.374.178-.128.312-.308.385-.514.073-.234.107-.479.1-.724v-4.345l-4.82.006Zm4.835-.654v-6.193c-.825.95-1.608,1.947-2.348,2.99-.74,1.043-1.452,2.11-2.137,3.2l4.485.003Z" fill="#be9251"/>
        <path id="Path_3352" data-name="Path 3352" d="m62.695,183.944c-.14.187-.358.53-.654,1.028-.296.498-.596,1.031-.9,1.6s-.573,1.106-.806,1.612c-.182.337-.301.706-.35,1.086-.006.172.062.337.187.455.131.121.286.212.455.268.182.064.37.111.56.141.17.025.337.064.5.116v.328c-.482-.047-.957-.075-1.425-.082s-.943-.011-1.425-.011c-.451,0-.891.008-1.32.024s-.869.039-1.32.07v-.328c.367-.075.723-.193,1.063-.35.305-.152.584-.349.829-.585.303-.292.577-.613.818-.958.281-.389.614-.871,1-1.448.249-.39.572-.89.969-1.5.397-.61.845-1.272,1.344-1.986.497-.716,1.027-1.471,1.588-2.266.561-.795,1.138-1.573,1.729-2.336.591-.763,1.183-1.492,1.775-2.185.592-.693,1.153-1.297,1.682-1.81l.537.14v13.992c-.012.195.042.388.152.549.104.135.235.247.385.327.166.09.342.161.525.21.188.053.371.12.549.2v.328c-.452-.047-.908-.075-1.367-.082-.459-.007-.915-.011-1.366-.011-.561,0-1.121.004-1.682.011s-1.121.035-1.682.082v-.328c.498-.124.907-.241,1.226-.35.271-.085.526-.211.759-.374.178-.128.312-.308.385-.514.073-.234.107-.479.1-.724v-4.345l-4.82.006Zm4.835-.654v-6.193c-.825.95-1.608,1.947-2.348,2.99-.74,1.043-1.452,2.11-2.137,3.2l4.485.003Z" fill="none" stroke="#be9251" stroke-miterlimit="10" stroke-width=".484"/>
        <path id="Path_3353" data-name="Path 3353" d="m82.996,181.889c.841,0,1.519-.02,2.032-.059.446-.022.885-.117,1.3-.28.351-.149.666-.372.922-.654.33-.372.634-.767.911-1.18l.186.233c-.421.95-.814,1.912-1.179,2.885-.367.976-.682,1.97-.946,2.979h-.257c-.015-.222-.007-.445.024-.666.034-.267.049-.537.046-.806.009-.369-.022-.738-.093-1.1-.053-.25-.204-.469-.42-.607-.294-.162-.622-.254-.958-.268-.421-.039-.998-.059-1.729-.059-.063.234-.156.542-.28.924s-.266.801-.426,1.258l-.479,1.413c-.163.483-.311.939-.444,1.367-.133.429-.241.806-.327,1.133-.068.228-.111.463-.128.7,0,.187.144.35.432.49.318.151.651.268.993.35.362.092.729.162,1.1.211.358.047.607.078.747.093v.328c-.763-.031-1.519-.055-2.266-.07-.747-.015-1.502-.02-2.265-.015-.561,0-1.125.008-1.693.024-.568.016-1.133.039-1.694.07l.047-.328c.421-.093.768-.174,1.039-.245.231-.055.455-.137.666-.245.163-.087.304-.211.409-.363.123-.193.221-.401.292-.619.14-.405.335-.957.584-1.658.249-.701.518-1.464.806-2.29.288-.825.584-1.674.888-2.546.304-.872.58-1.682.829-2.429s.451-1.386.607-1.916c.114-.333.192-.678.233-1.028-.009-.233-.143-.443-.351-.549-.258-.159-.537-.281-.829-.363-.32-.093-.635-.17-.946-.233-.311-.063-.537-.11-.678-.141l.047-.327h11.353c-.031.327-.051.658-.059.993-.008.335-.012.666-.013.993,0,.437.004.87.011,1.3.007.43.027.854.059,1.273h-.28c-.108-.263-.237-.517-.386-.759-.133-.21-.264-.444-.4-.7-.152-.307-.273-.628-.362-.958-.132-.503-.232-1.014-.3-1.53l-4.368-.093-2.007,6.067Z" fill="#be9251"/>
        <path id="Path_3354" data-name="Path 3354" d="m82.996,181.889c.841,0,1.519-.02,2.032-.059.446-.022.885-.117,1.3-.28.351-.149.666-.372.922-.654.33-.372.634-.767.911-1.18l.186.233c-.421.95-.814,1.912-1.179,2.885-.367.976-.682,1.97-.946,2.979h-.257c-.015-.222-.007-.445.024-.666.034-.267.049-.537.046-.806.009-.369-.022-.738-.093-1.1-.053-.25-.204-.469-.42-.607-.294-.162-.622-.254-.958-.268-.421-.039-.998-.059-1.729-.059-.063.234-.156.542-.28.924s-.266.801-.426,1.258l-.479,1.413c-.163.483-.311.939-.444,1.367-.133.429-.241.806-.327,1.133-.068.228-.111.463-.128.7,0,.187.144.35.432.49.318.151.651.268.993.35.362.092.729.162,1.1.211.358.047.607.078.747.093v.328c-.763-.031-1.519-.055-2.266-.07-.747-.015-1.502-.02-2.265-.015-.561,0-1.125.008-1.693.024-.568.016-1.133.039-1.694.07l.047-.328c.421-.093.768-.174,1.039-.245.231-.055.455-.137.666-.245.163-.087.304-.211.409-.363.123-.193.221-.401.292-.619.14-.405.335-.957.584-1.658.249-.701.518-1.464.806-2.29.288-.825.584-1.674.888-2.546.304-.872.58-1.682.829-2.429s.451-1.386.607-1.916c.114-.333.192-.678.233-1.028-.009-.233-.143-.443-.351-.549-.258-.159-.537-.281-.829-.363-.32-.093-.635-.17-.946-.233-.311-.063-.537-.11-.678-.141l.047-.327h11.353c-.031.327-.051.658-.059.993-.008.335-.012.666-.013.993,0,.437.004.87.011,1.3.007.43.027.854.059,1.273h-.28c-.108-.263-.237-.517-.386-.759-.133-.21-.264-.444-.4-.7-.152-.307-.273-.628-.362-.958-.132-.503-.232-1.014-.3-1.53l-4.368-.093-2.007,6.067Z" fill="none" stroke="#be9251" stroke-miterlimit="10" stroke-width=".484"/>
        <path id="Path_3355" data-name="Path 3355" d="m94.551,181.422c-.177.58-.388,1.149-.631,1.705-.295.701-.591,1.421-.887,2.161s-.557,1.44-.782,2.1c-.19.49-.305,1.006-.339,1.53-.002.23.118.443.315.561.188.133.412.206.642.21.311,0,.615-.089.876-.257.266-.167.516-.358.747-.572.226-.21.421-.401.584-.572.164-.171.276-.257.339-.257.078,0,.116.047.116.141,0,.079-.12.258-.361.537-.281.318-.59.612-.923.876-.385.312-.799.585-1.237.817-.399.227-.849.352-1.308.363-.198-.002-.394-.029-.585-.082-.203-.055-.396-.142-.572-.257-.174-.111-.321-.258-.432-.432-.11-.174-.166-.377-.163-.583.042-.269.116-.532.221-.783.149-.413.349-.962.6-1.647.251-.685.547-1.495.887-2.43.343-.933.709-1.977,1.1-3.13h1.793Zm.934-6.448c.284-.018.565.065.794.234.205.201.308.485.28.771.005.33-.111.65-.327.9-.19.245-.484.387-.794.386-.286.019-.57-.063-.8-.234-.204-.201-.307-.484-.279-.77-.006-.33.111-.651.327-.9.19-.245.484-.387.794-.386" fill="#be9251"/>
        <path id="Path_3356" data-name="Path 3356" d="m94.551,181.422c-.177.58-.388,1.149-.631,1.705-.295.701-.591,1.421-.887,2.161s-.557,1.44-.782,2.1c-.19.49-.305,1.006-.339,1.53-.002.23.118.443.315.561.188.133.412.206.642.21.311,0,.615-.089.876-.257.266-.167.516-.358.747-.572.226-.21.421-.401.584-.572.164-.171.276-.257.339-.257.078,0,.116.047.116.141,0,.079-.12.258-.361.537-.281.318-.59.612-.923.876-.385.312-.799.585-1.237.817-.399.227-.849.352-1.308.363-.198-.002-.394-.029-.585-.082-.203-.055-.396-.142-.572-.257-.174-.111-.321-.258-.432-.432-.11-.174-.166-.377-.163-.583.042-.269.116-.532.221-.783.149-.413.349-.962.6-1.647.251-.685.547-1.495.887-2.43.343-.933.709-1.977,1.1-3.13h1.793Zm.934-6.448c.284-.018.565.065.794.234.205.201.308.485.28.771.005.33-.111.65-.327.9-.19.245-.484.387-.794.386-.286.019-.57-.063-.8-.234-.204-.201-.307-.484-.279-.77-.006-.33.111-.651.327-.9.191-.247.487-.39.799-.387Z" fill="none" stroke="#be9251" stroke-miterlimit="10" stroke-width=".484"/>
        <path id="Path_3357" data-name="Path 3357" d="m100.11,181.702l-1.635,4.438.046.047c.264-.497.552-.98.865-1.448.359-.548.761-1.067,1.2-1.553.425-.475.908-.895,1.437-1.25.458-.325,1.004-.504,1.565-.514.205,0,.409.028.607.081.193.051.378.13.549.234.353.215.563.603.55,1.016-.017.271-.072.539-.164.794-.109.343-.249.716-.42,1.121-.171.405-.354.829-.549,1.273-.195.444-.378.864-.549,1.261s-.311.755-.42,1.075c-.089.228-.144.468-.163.712-.009.199.078.39.234.514.151.124.342.19.537.187.209.002.416-.042.607-.129.178-.08.35-.174.514-.28.155-.1.288-.195.4-.28.071-.068.16-.113.257-.129.034,0,.067.013.094.034.032.025.049.065.046.106,0,.047-.1.156-.3.327-.242.199-.5.379-.771.537-.327.194-.671.358-1.028.49-.335.133-.691.204-1.051.21-.353.001-.702-.083-1.016-.245-.318-.161-.507-.498-.479-.853.015-.264.07-.524.163-.771.109-.327.25-.689.421-1.086s.354-.814.549-1.249c.194-.436.377-.853.549-1.25s.312-.764.42-1.1c.093-.251.148-.515.164-.782,0-.529-.28-.796-.841-.8-.401.015-.787.158-1.1.409-.414.311-.784.676-1.1,1.086-.383.487-.734.998-1.051,1.53-.343.568-.658,1.148-.946,1.74-.288.592-.541,1.172-.759,1.74-.219.569-.398,1.079-.537,1.53h-1.565c.451-1.479.922-2.943,1.413-4.392s.985-2.913,1.483-4.392l1.774.011Z" fill="#be9251"/>
        <path id="Path_3358" data-name="Path 3358" d="m100.11,181.702l-1.635,4.438.046.047c.264-.497.552-.98.865-1.448.359-.548.761-1.067,1.2-1.553.425-.475.908-.895,1.437-1.25.458-.325,1.004-.504,1.565-.514.205,0,.409.028.607.081.193.051.378.13.549.234.353.215.563.603.55,1.016-.017.271-.072.539-.164.794-.109.343-.249.716-.42,1.121-.171.405-.354.829-.549,1.273-.195.444-.378.864-.549,1.261s-.311.755-.42,1.075c-.089.228-.144.468-.163.712-.009.199.078.39.234.514.151.124.342.19.537.187.209.002.416-.042.607-.129.178-.08.35-.174.514-.28.155-.1.288-.195.4-.28.071-.068.16-.113.257-.129.034,0,.067.013.094.034.032.025.049.065.046.106,0,.047-.1.156-.3.327-.242.199-.5.379-.771.537-.327.194-.671.358-1.028.49-.335.133-.691.204-1.051.21-.353.001-.702-.083-1.016-.245-.318-.161-.507-.498-.479-.853.015-.264.07-.524.163-.771.109-.327.25-.689.421-1.086s.354-.814.549-1.249c.194-.436.377-.853.549-1.25s.312-.764.42-1.1c.093-.251.148-.515.164-.782,0-.529-.28-.796-.841-.8-.401.015-.787.158-1.1.409-.414.311-.784.676-1.1,1.086-.383.487-.734.998-1.051,1.53-.343.568-.658,1.148-.946,1.74-.288.592-.541,1.172-.759,1.74-.219.569-.398,1.079-.537,1.53h-1.565c.451-1.479.922-2.943,1.413-4.392s.985-2.913,1.483-4.392l1.774.011Z" fill="none" stroke="#be9251" stroke-miterlimit="10" stroke-width=".484"/>
        <path id="Path_3359" data-name="Path 3359" d="m108.005,187.914c-.023.471.113.936.386,1.32.32.361.793.547,1.273.5.314.005.627-.046.923-.152.267-.098.522-.227.759-.385.231-.154.45-.326.654-.514.2-.187.4-.358.584-.514.07-.054.133-.117.187-.187.046-.062.086-.093.117-.093.109,0,.163.031.163.093,0,.078-.139.269-.42.572-.335.351-.703.667-1.1.946-.479.342-.992.636-1.53.876-.546.252-1.14.383-1.741.385-.566.031-1.122-.157-1.554-.525-.399-.396-.608-.946-.572-1.507.008-.543.109-1.081.3-1.589.21-.576.48-1.128.806-1.647.68-1.082,1.532-2.045,2.524-2.85.436-.358.915-.66,1.425-.9.419-.205.877-.316,1.343-.327.542-.078,1.044.298,1.122.84.013.093.013.188,0,.281-.005.522-.221,1.019-.6,1.378-.419.421-.899.775-1.425,1.051-.549.294-1.123.536-1.717.724-.593.187-1.083.327-1.472.42-.142.281-.248.579-.316.887-.077.298-.12.603-.128.911m3.925-5.022c.023-.173-.06-.343-.211-.432-.169-.076-.352-.112-.537-.105-.327.014-.636.151-.864.385-.293.272-.552.577-.771.911-.229.342-.425.706-.584,1.086-.155.373-.272.677-.35.91.343-.067.677-.177.993-.327.383-.172.747-.383,1.086-.631.33-.237.625-.52.876-.84.226-.269.354-.607.363-.958" fill="#be9251"/>
        <path id="Path_3360" data-name="Path 3360" d="m108.005,187.914c-.023.471.113.936.386,1.32.32.361.793.547,1.273.5.314.005.627-.046.923-.152.267-.098.522-.227.759-.385.231-.154.45-.326.654-.514.2-.187.4-.358.584-.514.07-.054.133-.117.187-.187.046-.062.086-.093.117-.093.109,0,.163.031.163.093,0,.078-.139.269-.42.572-.335.351-.703.667-1.1.946-.479.342-.992.636-1.53.876-.546.252-1.14.383-1.741.385-.566.031-1.122-.157-1.554-.525-.399-.396-.608-.946-.572-1.507.008-.543.109-1.081.3-1.589.21-.576.48-1.128.806-1.647.68-1.082,1.532-2.045,2.524-2.85.436-.358.915-.66,1.425-.9.419-.205.877-.316,1.343-.327.542-.078,1.044.298,1.122.84.013.093.013.188,0,.281-.005.522-.221,1.019-.6,1.378-.419.421-.899.775-1.425,1.051-.549.294-1.123.536-1.717.724-.593.187-1.083.327-1.472.42-.142.281-.248.579-.316.887-.075.3-.115.608-.119.917Zm3.925-5.022c.023-.173-.06-.343-.211-.432-.169-.076-.352-.112-.537-.105-.327.014-.636.151-.864.385-.293.272-.552.577-.771.911-.229.342-.425.706-.584,1.086-.155.373-.272.677-.35.91.343-.067.677-.177.993-.327.383-.172.747-.383,1.086-.631.33-.237.625-.52.876-.84.225-.269.353-.606.362-.957Z" fill="none" stroke="#be9251" stroke-miterlimit="10" stroke-width=".484"/>
        <path id="Path_3361" data-name="Path 3361" d="m125.034,175.909c-.445.584-.941,1.127-1.483,1.623-.54.493-1.105.957-1.694,1.39l-.233-.163c.311-.593.611-1.185.9-1.776s.581-1.183.876-1.775c1.043.047,2.087.074,3.131.082s2.095.012,3.154.011c1.027,0,2.044-.004,3.049-.011,1.005-.007,2.021-.035,3.048-.082-.078.686-.148,1.367-.21,2.044-.062.677-.109,1.366-.141,2.067h-.327c-.306-.533-.564-1.092-.771-1.67-.203-.57-.374-1.151-.513-1.74h-3.178c-.046.156-.148.464-.3.922s-.343,1.009-.561,1.647-.463,1.335-.735,2.091-.542,1.522-.806,2.3-.525,1.534-.783,2.266-.483,1.382-.677,1.95-.35,1.036-.467,1.4c-.069.197-.127.397-.175.6,0,.171.144.323.432.455.321.144.653.261.993.35.373.101.74.183,1.1.245.36.062.609.101.747.116v.328c-.172-.016-.441-.032-.806-.047-.365-.015-.774-.027-1.226-.034-.452-.009-.919-.013-1.4-.012h-1.308c-.655,0-1.297.008-1.927.024s-1.273.039-1.928.07v-.329c.467-.093.946-.19,1.437-.291.472-.093.925-.262,1.343-.5.165-.183.293-.398.374-.631.171-.373.371-.856.6-1.448s.475-1.262.736-2.009c.267-.748.535-1.519.806-2.313.271-.794.539-1.581.806-2.36.267-.778.504-1.494.712-2.149s.391-1.215.549-1.682c.155-.467.255-.786.3-.958h-3.444Z" fill="#be9251"/>
        <path id="Path_3362" data-name="Path 3362" d="m125.034,175.909c-.445.584-.941,1.127-1.483,1.623-.54.493-1.105.957-1.694,1.39l-.233-.163c.311-.593.611-1.185.9-1.776s.581-1.183.876-1.775c1.043.047,2.087.074,3.131.082s2.095.012,3.154.011c1.027,0,2.044-.004,3.049-.011,1.005-.007,2.021-.035,3.048-.082-.078.686-.148,1.367-.21,2.044-.062.677-.109,1.366-.141,2.067h-.327c-.306-.533-.564-1.092-.771-1.67-.203-.57-.374-1.151-.513-1.74h-3.178c-.046.156-.148.464-.3.922s-.343,1.009-.561,1.647-.463,1.335-.735,2.091-.542,1.522-.806,2.3-.525,1.534-.783,2.266-.483,1.382-.677,1.95-.35,1.036-.467,1.4c-.069.197-.127.397-.175.6,0,.171.144.323.432.455.321.144.653.261.993.35.373.101.74.183,1.1.245.36.062.609.101.747.116v.328c-.172-.016-.441-.032-.806-.047-.365-.015-.774-.027-1.226-.034-.452-.009-.919-.013-1.4-.012h-1.308c-.655,0-1.297.008-1.927.024s-1.273.039-1.928.07v-.329c.467-.093.946-.19,1.437-.291.472-.093.925-.262,1.343-.5.165-.183.293-.398.374-.631.171-.373.371-.856.6-1.448s.475-1.262.736-2.009c.267-.748.535-1.519.806-2.313.271-.794.539-1.581.806-2.36.267-.778.504-1.494.712-2.149s.391-1.215.549-1.682c.155-.467.255-.786.3-.958h-3.444Z" fill="none" stroke="#be9251" stroke-miterlimit="10" stroke-width=".484"/>
        <path id="Path_3363" data-name="Path 3363" d="m137.5,181.422c-.177.58-.388,1.149-.631,1.705-.295.701-.591,1.421-.887,2.161-.296.74-.557,1.44-.782,2.1-.19.49-.305,1.006-.339,1.53-.002.23.118.443.315.561.188.133.412.206.642.21.311,0,.615-.089.876-.257.266-.167.516-.358.747-.572.226-.21.421-.401.584-.572.164-.171.276-.257.339-.257.078,0,.116.047.116.141,0,.079-.12.258-.361.537-.281.318-.59.612-.923.876-.385.312-.799.585-1.237.817-.399.227-.849.352-1.308.363-.198-.002-.394-.029-.585-.082-.203-.055-.396-.142-.572-.257-.174-.111-.321-.258-.432-.432-.11-.174-.166-.377-.163-.583.042-.269.116-.532.221-.783.149-.413.349-.962.6-1.647.251-.685.547-1.495.887-2.43.343-.933.709-1.977,1.1-3.13h1.793Zm.934-6.448c.284-.018.565.065.794.234.206.201.309.485.281.771.005.33-.111.65-.327.9-.19.245-.484.387-.794.386-.286.019-.57-.063-.8-.234-.204-.201-.307-.484-.279-.77-.006-.33.111-.651.327-.9.19-.245.484-.387.794-.386" fill="#be9251"/>
        <path id="Path_3364" data-name="Path 3364" d="m137.5,181.422c-.177.58-.388,1.149-.631,1.705-.295.701-.591,1.421-.887,2.161-.296.74-.557,1.44-.782,2.1-.19.49-.305,1.006-.339,1.53-.002.23.118.443.315.561.188.133.412.206.642.21.311,0,.615-.089.876-.257.266-.167.516-.358.747-.572.226-.21.421-.401.584-.572.164-.171.276-.257.339-.257.078,0,.116.047.116.141,0,.079-.12.258-.361.537-.281.318-.59.612-.923.876-.385.312-.799.585-1.237.817-.399.227-.849.352-1.308.363-.198-.002-.394-.029-.585-.082-.203-.055-.396-.142-.572-.257-.174-.111-.321-.258-.432-.432-.11-.174-.166-.377-.163-.583.042-.269.116-.532.221-.783.149-.413.349-.962.6-1.647.251-.685.547-1.495.887-2.43.343-.933.709-1.977,1.1-3.13h1.793Zm.934-6.448c.284-.018.565.065.794.234.206.201.309.485.281.771.005.33-.111.65-.327.9-.19.245-.484.387-.794.386-.286.019-.57-.063-.8-.234-.204-.201-.307-.484-.279-.77-.006-.33.111-.651.327-.9.191-.246.486-.389.798-.387Z" fill="none" stroke="#be9251" stroke-miterlimit="10" stroke-width=".484"/>
        <path id="Path_3365" data-name="Path 3365" d="m141.258,181.702h1.729l-1.518,4.088.046.046c.311-.482.634-.984.969-1.506.325-.509.696-.986,1.11-1.425.401-.425.866-.783,1.378-1.063.539-.286,1.142-.43,1.752-.42.348-.017.685.119.923.373.231.265.352.607.338.958-.019.263-.073.523-.163.771-.109.343-.239.7-.386,1.086s-.3.751-.443,1.109-.253.631-.316.818l.047.046c.327-.529.66-1.095,1-1.7.332-.593.715-1.155,1.144-1.682.408-.503.897-.933,1.448-1.273.579-.343,1.243-.516,1.916-.5.358,0,.704.133.969.373.283.237.442.589.433.958-.018.264-.074.523-.166.771-.11.343-.251.72-.424,1.133s-.354.846-.543,1.3c-.188.452-.37.872-.542,1.261s-.314.732-.425,1.028c-.084.193-.14.398-.165.607-.034.237.048.477.222.642.202.115.433.167.665.151.251-.006.495-.087.7-.233.236-.157.459-.332.667-.525.209-.195.388-.37.537-.526.149-.156.246-.234.293-.233.038.002.074.014.106.035.037.022.059.063.057.106-.086.15-.192.288-.315.409-.252.281-.525.543-.818.782-.355.294-.739.553-1.145.771-.394.224-.839.345-1.293.35-.365-.004-.72-.123-1.014-.339-.311-.202-.495-.552-.485-.923.023-.221.078-.437.164-.642.109-.3.249-.658.421-1.063s.353-.833.549-1.285.377-.888.548-1.308.312-.8.42-1.133c.091-.244.146-.499.164-.759.004-.208-.081-.408-.234-.549-.15-.145-.351-.225-.56-.221-.455.012-.893.172-1.249.455-.448.339-.845.74-1.18,1.191-.394.522-.749,1.073-1.062,1.647-.333.607-.637,1.211-.911,1.811-.274.6-.512,1.167-.713,1.7-.2.538-.355.978-.466,1.32h-1.635c.139-.548.315-1.087.525-1.612.257-.67.522-1.367.794-2.091s.513-1.409.724-2.056c.177-.476.283-.976.316-1.483.053-.439-.259-.837-.698-.891-.071-.009-.143-.008-.213.003-.431.022-.84.196-1.156.49-.437.37-.826.794-1.157,1.261-.392.544-.747,1.113-1.063,1.705-.333.624-.637,1.239-.91,1.846-.273.607-.503,1.163-.69,1.67-.146.378-.27.764-.373,1.156h-1.518l2.875-8.786Z" fill="#be9251"/>
        <path id="Path_3366" data-name="Path 3366" d="m141.258,181.702h1.729l-1.518,4.088.046.046c.311-.482.634-.984.969-1.506.325-.509.696-.986,1.11-1.425.401-.425.866-.783,1.378-1.063.539-.286,1.142-.43,1.752-.42.348-.017.685.119.923.373.231.265.352.607.338.958-.019.263-.073.523-.163.771-.109.343-.239.7-.386,1.086s-.3.751-.443,1.109-.253.631-.316.818l.047.046c.327-.529.66-1.095,1-1.7.332-.593.715-1.155,1.144-1.682.408-.503.897-.933,1.448-1.273.579-.343,1.243-.516,1.916-.5.358,0,.704.133.969.373.283.237.442.589.433.958-.018.264-.074.523-.166.771-.11.343-.251.72-.424,1.133s-.354.846-.543,1.3c-.188.452-.37.872-.542,1.261s-.314.732-.425,1.028c-.084.193-.14.398-.165.607-.034.237.048.477.222.642.202.115.433.167.665.151.251-.006.495-.087.7-.233.236-.157.459-.332.667-.525.209-.195.388-.37.537-.526.149-.156.246-.234.293-.233.038.002.074.014.106.035.037.022.059.063.057.106-.086.15-.192.288-.315.409-.252.281-.525.543-.818.782-.355.294-.739.553-1.145.771-.394.224-.839.345-1.293.35-.365-.004-.72-.123-1.014-.339-.311-.202-.495-.552-.485-.923.023-.221.078-.437.164-.642.109-.3.249-.658.421-1.063s.353-.833.549-1.285.377-.888.548-1.308.312-.8.42-1.133c.091-.244.146-.499.164-.759.004-.208-.081-.408-.234-.549-.15-.145-.351-.225-.56-.221-.455.012-.893.172-1.249.455-.448.339-.845.74-1.18,1.191-.394.522-.749,1.073-1.062,1.647-.333.607-.637,1.211-.911,1.811-.274.6-.512,1.167-.713,1.7-.2.538-.355.978-.466,1.32h-1.635c.139-.548.315-1.087.525-1.612.257-.67.522-1.367.794-2.091s.513-1.409.724-2.056c.177-.476.283-.976.316-1.483.053-.439-.259-.837-.698-.891-.071-.009-.143-.008-.213.003-.431.022-.84.196-1.156.49-.437.37-.826.794-1.157,1.261-.392.544-.747,1.113-1.063,1.705-.333.624-.637,1.239-.91,1.846-.273.607-.503,1.163-.69,1.67-.146.378-.27.764-.373,1.156h-1.518l2.875-8.786Z" fill="none" stroke="#be9251" stroke-miterlimit="10" stroke-width=".484"/>
        <path id="Path_3367" data-name="Path 3367" d="m156.755,187.914c-.023.471.113.935.385,1.32.32.361.793.547,1.273.5.314.005.626-.046.922-.152.267-.098.522-.227.759-.385.231-.154.45-.326.654-.514.2-.187.4-.358.585-.514.07-.054.133-.117.187-.187.046-.062.085-.093.116-.093.109,0,.163.031.163.093,0,.078-.14.269-.42.572-.335.351-.703.668-1.1.946-.479.343-.992.636-1.53.876-.546.252-1.14.383-1.741.385-.566.03-1.122-.157-1.553-.525-.4-.396-.608-.946-.572-1.507.007-.543.109-1.081.3-1.589.21-.576.48-1.128.806-1.647.68-1.082,1.532-2.044,2.523-2.85.436-.358.915-.66,1.425-.9.419-.205.877-.316,1.343-.327.542-.077,1.044.299,1.121.841.013.093.013.187,0,.28-.004.522-.221,1.019-.6,1.378-.419.421-.899.775-1.425,1.051-.549.294-1.123.537-1.717.724-.592.187-1.083.327-1.472.42-.142.281-.248.579-.315.887-.077.298-.12.603-.128.911m3.924-5.022c.023-.173-.06-.343-.211-.432-.169-.076-.352-.112-.537-.105-.327.013-.636.151-.864.385-.293.271-.552.577-.771.911-.23.342-.425.706-.584,1.086-.156.373-.273.677-.35.91.343-.067.677-.177.993-.327.383-.172.747-.383,1.086-.631.33-.237.625-.52.876-.84.226-.269.353-.607.362-.958" fill="#be9251"/>
        <path id="Path_3368" data-name="Path 3368" d="m156.755,187.914c-.023.471.113.935.385,1.32.32.361.793.547,1.273.5.314.005.626-.046.922-.152.267-.098.522-.227.759-.385.231-.154.45-.326.654-.514.2-.187.4-.358.585-.514.07-.054.133-.117.187-.187.046-.062.085-.093.116-.093.109,0,.163.031.163.093,0,.078-.14.269-.42.572-.335.351-.703.668-1.1.946-.479.343-.992.636-1.53.876-.546.252-1.14.383-1.741.385-.566.03-1.122-.157-1.553-.525-.4-.396-.608-.946-.572-1.507.007-.543.109-1.081.3-1.589.21-.576.48-1.128.806-1.647.68-1.082,1.532-2.044,2.523-2.85.436-.358.915-.66,1.425-.9.419-.205.877-.316,1.343-.327.542-.077,1.044.299,1.121.841.013.093.013.187,0,.28-.004.522-.221,1.019-.6,1.378-.419.421-.899.775-1.425,1.051-.549.294-1.123.537-1.717.724-.592.187-1.083.327-1.472.42-.142.281-.248.579-.315.887-.074.3-.113.608-.117.917Zm3.924-5.022c.023-.173-.06-.343-.211-.432-.169-.076-.352-.112-.537-.105-.327.013-.636.151-.864.385-.293.271-.552.577-.771.911-.23.342-.425.706-.584,1.086-.156.373-.273.677-.35.91.343-.067.677-.177.993-.327.383-.172.747-.383,1.086-.631.33-.237.625-.52.876-.84.225-.269.353-.606.362-.957Z" fill="none" stroke="#be9251" stroke-miterlimit="10" stroke-width=".484"/>
        <path id="Path_3369" data-name="Path 3369" d="m163.888,179.179c.267-.171.543-.354.829-.549.285-.192.547-.416.782-.667.229-.242.426-.513.585-.806.156-.291.236-.616.233-.946,0-.25-.107-.487-.293-.654-.173-.176-.398-.29-.642-.327v-.07c.249-.236.514-.455.794-.654.282-.192.617-.29.958-.28.269-.005.528.104.713.3.19.193.295.453.291.724.001.493-.141.976-.409,1.39-.28.437-.622.83-1.016,1.168-.407.352-.85.661-1.32.923-.475.267-.915.492-1.32.677l-.185-.229Zm3.9,0c.267-.171.543-.354.829-.549.285-.192.548-.416.783-.667.229-.242.425-.513.584-.806.156-.291.236-.616.233-.946,0-.249-.107-.487-.292-.654-.173-.176-.398-.29-.642-.327v-.07c.249-.236.514-.455.794-.654.282-.192.617-.29.958-.28.269-.005.528.104.712.3.191.192.297.453.293.724.001.493-.141.976-.409,1.39-.28.437-.622.83-1.016,1.168-.407.352-.85.661-1.32.923-.475.267-.915.492-1.319.677l-.188-.229Z" fill="#be9251"/>
        <path id="Path_3370" data-name="Path 3370" d="m163.888,179.179c.267-.171.543-.354.829-.549.285-.192.547-.416.782-.667.229-.242.426-.513.585-.806.156-.291.236-.616.233-.946,0-.25-.107-.487-.293-.654-.173-.176-.398-.29-.642-.327v-.07c.249-.236.514-.455.794-.654.282-.192.617-.29.958-.28.269-.005.528.104.713.3.19.193.295.453.291.724.001.493-.141.976-.409,1.39-.28.437-.622.83-1.016,1.168-.407.352-.85.661-1.32.923-.475.267-.915.492-1.32.677l-.185-.229Zm3.9,0c.267-.171.543-.354.829-.549.285-.192.548-.416.783-.667.229-.242.425-.513.584-.806.156-.291.236-.616.233-.946,0-.249-.107-.487-.292-.654-.173-.176-.398-.29-.642-.327v-.07c.249-.236.514-.455.794-.654.282-.192.617-.29.958-.28.269-.005.528.104.712.3.191.192.297.453.293.724.001.493-.141.976-.409,1.39-.28.437-.622.83-1.016,1.168-.407.352-.85.661-1.32.923-.475.267-.915.492-1.319.677l-.188-.229Z" fill="none" stroke="#be9251" stroke-miterlimit="10" stroke-width=".484"/>
      </g>
    </g>
  </g>
</svg>